<?xml version="1.0" encoding="utf-8"?>
<!-- Generator: Adobe Illustrator 16.0.0, SVG Export Plug-In . SVG Version: 6.00 Build 0)  -->
<!DOCTYPE svg PUBLIC "-//W3C//DTD SVG 1.1//EN" "http://www.w3.org/Graphics/SVG/1.1/DTD/svg11.dtd">
<svg version="1.1" id="레이어_1" xmlns="http://www.w3.org/2000/svg" xmlns:xlink="http://www.w3.org/1999/xlink" x="0px"
	 y="0px" width="335.983px" height="119.91px" viewBox="0 0 335.983 119.91" enable-background="new 0 0 335.983 119.91"
	 xml:space="preserve">
<g>
	<path fill="#F5D834" d="M335.983,104.91c0,8.25-6.75,15-15,15H15c-8.25,0-15-6.75-15-15V15C0,6.75,6.75,0,15,0h305.983
		c8.25,0,15,6.75,15,15V104.91z"/>
</g>
<g>
	<path fill="none" stroke="#040000" stroke-width="2" stroke-miterlimit="10" d="M20,114.91c-8.25,0-15-6.75-15-15V20
		c0-8.25,6.75-15,15-15h295.983c8.25,0,15,6.75,15,15v79.91c0,8.25-6.75,15-15,15H20z"/>
</g>
<g>
	<path d="M74.277,33.235c0-3.918-0.281-7.199-0.84-9.84c2.719-0.318,5.479-0.48,8.28-0.48c1.359,0,2.04,0.601,2.04,1.801v65.16
		c0,4.001-1.361,7.121-4.08,9.359c-2.721,2.238-6.42,3.36-11.1,3.36s-8.141-1.122-10.38-3.36c-2.241,2.238-5.661,3.36-10.26,3.36
		c-4.601,0-8.16-1.041-10.68-3.12c-2.52-2.08-3.78-5.119-3.78-9.12v-56.76c0-1.681-0.341-2.859-1.02-3.54
		c-0.681-0.679-1.86-1.02-3.54-1.02c0-4.561,2.56-6.841,7.68-6.841c4.239,0,6.36,2.761,6.36,8.28v59.4c0,1.52,0.499,2.699,1.5,3.539
		c1,0.84,2.299,1.26,3.9,1.26c1.6,0,2.919-0.378,3.96-1.139c1.039-0.76,1.56-1.819,1.56-3.181v-57.12c0-3.918-0.281-7.199-0.84-9.84
		c2.719-0.318,5.479-0.48,8.28-0.48c1.359,0,2.04,0.601,2.04,1.801v65.16c0,1.52,0.499,2.699,1.5,3.539c1,0.84,2.319,1.26,3.96,1.26
		c1.639,0,2.959-0.42,3.96-1.26c0.999-0.84,1.5-2.02,1.5-3.539V33.235z"/>
	<path d="M92.396,99.956V34.915c0-3.999,1.359-7.119,4.08-9.359c2.719-2.238,6.439-3.36,11.16-3.36c4.719,0,8.379,1.041,10.98,3.12
		c2.599,2.082,3.9,5.121,3.9,9.12v56.76c0,1.681,0.339,2.861,1.02,3.54c0.679,0.681,1.86,1.02,3.54,1.02
		c0,4.561-2.561,6.841-7.68,6.841c-4.241,0-6.36-2.761-6.36-8.28v-27.92h-11.16v23.721l0.48,11.279c-2.72,0.399-5.4,0.6-8.04,0.6
		C93.035,101.995,92.396,101.317,92.396,99.956z M101.875,34.915v23.561h11.16V34.915c0-1.518-0.521-2.699-1.56-3.539
		c-1.041-0.84-2.4-1.26-4.08-1.26c-1.68,0-3.021,0.42-4.02,1.26C102.375,32.216,101.875,33.397,101.875,34.915z"/>
	<path d="M153.115,33.235c0-3.918-0.281-7.199-0.84-9.84c2.719-0.318,5.479-0.48,8.28-0.48c1.359,0,2.04,0.601,2.04,1.801v65.16
		c0,4.001-1.361,7.121-4.08,9.359c-2.721,2.238-6.381,3.36-10.98,3.36c-4.602,0-8.261-1.021-10.98-3.06
		c-2.721-2.041-4.08-4.699-4.08-7.98v-13.16c0-1.439,1.039-2.439,3.12-3c1.12-0.318,2.239-0.48,3.36-0.48
		c1.119,0,2.239,0.121,3.36,0.36c-0.24,1.92-0.36,3.96-0.36,6.12v8.48c0,1.52,0.519,2.699,1.56,3.539c1.039,0.84,2.4,1.26,4.08,1.26
		c1.68,0,3.019-0.42,4.02-1.26c1-0.84,1.5-2.02,1.5-3.539V66.155c-2.081,2.082-4.88,3.12-8.4,3.12c-8.16,0-12.24-3.84-12.24-11.521
		V33.596c0-1.681-0.341-2.859-1.02-3.54c-0.681-0.679-1.86-1.02-3.54-1.02c0-4.561,2.559-6.841,7.68-6.841
		c4.24,0,6.36,2.761,6.36,8.28v26.561c0,2.879,1.458,4.319,4.38,4.319c2.919,0,5.179-1.399,6.78-4.2V33.235z"/>
	<path d="M212.633,33.235c0-3.918-0.281-7.199-0.84-9.84c2.719-0.318,5.479-0.48,8.28-0.48c1.359,0,2.04,0.601,2.04,1.801v65.16
		c0,4.001-1.361,7.121-4.08,9.359c-2.721,2.238-6.42,3.36-11.101,3.36c-4.68,0-8.141-1.122-10.38-3.36
		c-2.24,2.238-5.66,3.36-10.26,3.36c-4.602,0-8.16-1.041-10.68-3.12c-2.52-2.08-3.78-5.119-3.78-9.12v-56.76
		c0-1.681-0.341-2.859-1.02-3.54c-0.681-0.679-1.86-1.02-3.54-1.02c0-4.561,2.56-6.841,7.68-6.841c4.239,0,6.36,2.761,6.36,8.28
		v59.4c0,1.52,0.498,2.699,1.5,3.539c0.999,0.84,2.299,1.26,3.899,1.26c1.6,0,2.92-0.378,3.96-1.139
		c1.039-0.76,1.561-1.819,1.561-3.181v-57.12c0-3.918-0.281-7.199-0.84-9.84c2.719-0.318,5.479-0.48,8.279-0.48
		c1.359,0,2.04,0.601,2.04,1.801v65.16c0,1.52,0.499,2.699,1.5,3.539c1,0.84,2.319,1.26,3.96,1.26c1.639,0,2.959-0.42,3.96-1.26
		c1-0.84,1.5-2.02,1.5-3.539V33.235z"/>
	<path d="M230.752,99.956V34.915c0-3.999,1.359-7.119,4.08-9.359c2.719-2.238,6.438-3.36,11.159-3.36c4.72,0,8.38,1.041,10.98,3.12
		c2.599,2.082,3.9,5.121,3.9,9.12v56.76c0,1.681,0.339,2.861,1.02,3.54c0.679,0.681,1.86,1.02,3.54,1.02
		c0,4.561-2.562,6.841-7.68,6.841c-4.241,0-6.36-2.761-6.36-8.28v-27.92h-11.16v23.721l0.48,11.279c-2.721,0.399-5.4,0.6-8.04,0.6
		C231.391,101.995,230.752,101.317,230.752,99.956z M240.232,34.915v23.561h11.16V34.915c0-1.518-0.521-2.699-1.56-3.539
		c-1.041-0.84-2.4-1.26-4.08-1.26c-1.681,0-3.021,0.42-4.021,1.26C240.731,32.216,240.232,33.397,240.232,34.915z"/>
	<path d="M280.311,89.876c0,1.52,0.52,2.699,1.561,3.539c1.038,0.84,2.399,1.26,4.08,1.26c1.68,0,3.019-0.42,4.02-1.26
		c1-0.84,1.5-2.02,1.5-3.539V62.155c-2.081,2.082-4.881,3.12-8.399,3.12c-8.16,0-12.24-3.84-12.24-11.521V33.596
		c0-1.681-0.342-2.859-1.021-3.54c-0.681-0.679-1.859-1.02-3.54-1.02c0-4.561,2.56-6.841,7.681-6.841
		c4.239,0,6.359,2.761,6.359,8.28v22.561c0,2.879,1.459,4.319,4.38,4.319c2.92,0,5.18-1.399,6.78-4.2v-19.92
		c0-3.918-0.281-7.199-0.84-9.84c2.719-0.318,5.479-0.48,8.28-0.48c1.359,0,2.04,0.601,2.04,1.801v65.16
		c0,4.001-1.361,7.121-4.08,9.359c-2.721,2.238-6.381,3.36-10.98,3.36c-4.601,0-8.261-1.021-10.979-3.06
		c-2.721-2.041-4.08-4.699-4.08-7.98L280.311,89.876z"/>
</g>
<g>
	<path d="M280.311,89.876c0-4.87-0.504-11.23,6.078-12.084c8.543-1.243,13.957-1.949,18.876-2.604
		c6.73-0.896,4.159-8.484,4.159-8.484s-1.44,1.033-5.18,1.505c-6.938,0.875-8.32,1.002-20.105,2.459
		c-13.308,1.646-13.308,11.563-13.308,20.889"/>
</g>
</svg>
